<svg width="832" height="832" viewBox="0 0 832 832" fill="none" xmlns="http://www.w3.org/2000/svg">
<path d="M416 832C645.75 832 832 645.75 832 416C832 186.25 645.75 0 416 0C186.25 0 0 186.25 0 416C0 645.75 186.25 832 416 832Z" fill="white"/>
<path d="M235.001 551.198V562.498H205.901V580.399H228.201V591.499H205.901V621H191.9V551.198H235.001ZM277.33 621.7C270.796 621.7 264.796 620.167 259.329 617.1C253.862 614.033 249.529 609.8 246.329 604.4C243.129 598.933 241.529 592.766 241.529 585.899C241.529 579.099 243.129 572.999 246.329 567.599C249.529 562.132 253.862 557.865 259.329 554.798C264.796 551.732 270.796 550.198 277.33 550.198C283.93 550.198 289.93 551.732 295.33 554.798C300.797 557.865 305.097 562.132 308.231 567.599C311.431 572.999 313.031 579.099 313.031 585.899C313.031 592.766 311.431 598.933 308.231 604.4C305.097 609.8 300.797 614.033 295.33 617.1C289.863 620.167 283.863 621.7 277.33 621.7ZM277.33 609.2C281.53 609.2 285.23 608.266 288.43 606.4C291.63 604.466 294.13 601.733 295.93 598.199C297.73 594.666 298.63 590.566 298.63 585.899C298.63 581.232 297.73 577.166 295.93 573.699C294.13 570.165 291.63 567.465 288.43 565.599C285.23 563.732 281.53 562.799 277.33 562.799C273.13 562.799 269.396 563.732 266.129 565.599C262.929 567.465 260.429 570.165 258.629 573.699C256.829 577.166 255.929 581.232 255.929 585.899C255.929 590.566 256.829 594.666 258.629 598.199C260.429 601.733 262.929 604.466 266.129 606.4C269.396 608.266 273.13 609.2 277.33 609.2ZM359.447 621L344.047 593.799H337.447V621H323.447V551.198H349.647C355.047 551.198 359.647 552.165 363.448 554.098C367.248 555.965 370.081 558.532 371.948 561.798C373.881 564.999 374.848 568.599 374.848 572.599C374.848 577.199 373.514 581.366 370.848 585.099C368.181 588.766 364.214 591.299 358.947 592.699L375.648 621H359.447ZM337.447 583.299H349.147C352.947 583.299 355.781 582.399 357.647 580.599C359.514 578.732 360.447 576.166 360.447 572.899C360.447 569.699 359.514 567.232 357.647 565.499C355.781 563.699 352.947 562.799 349.147 562.799H337.447V583.299ZM435.012 551.198V562.498H416.411V621H402.411V562.498H383.811V551.198H435.012ZM459.027 551.198V594.399C459.027 599.133 460.261 602.766 462.727 605.3C465.194 607.766 468.661 609 473.128 609C477.661 609 481.161 607.766 483.628 605.3C486.095 602.766 487.328 599.133 487.328 594.399V551.198H501.428V594.299C501.428 600.233 500.128 605.266 497.528 609.4C494.995 613.466 491.562 616.533 487.228 618.6C482.961 620.667 478.195 621.7 472.928 621.7C467.728 621.7 462.994 620.667 458.727 618.6C454.527 616.533 451.194 613.466 448.727 609.4C446.26 605.266 445.027 600.233 445.027 594.299V551.198H459.027ZM550.956 621L535.556 593.799H528.956V621H514.955V551.198H541.156C546.556 551.198 551.156 552.165 554.956 554.098C558.756 555.965 561.59 558.532 563.457 561.798C565.39 564.999 566.357 568.599 566.357 572.599C566.357 577.199 565.023 581.366 562.357 585.099C559.69 588.766 555.723 591.299 550.456 592.699L567.157 621H550.956ZM528.956 583.299H540.656C544.456 583.299 547.289 582.399 549.156 580.599C551.023 578.732 551.956 576.166 551.956 572.899C551.956 569.699 551.023 567.232 549.156 565.499C547.289 563.699 544.456 562.799 540.656 562.799H528.956V583.299ZM621.821 607.7H594.02L589.42 621H574.719L599.82 551.098H616.12L641.221 621H626.421L621.821 607.7ZM618.02 596.499L607.92 567.299L597.82 596.499H618.02Z" fill="url(#paint0_linear_1_62)"/>
<path d="M456.361 640.054V650.533H439.114V704.778H426.132V650.533H408.885V640.054H456.361ZM478.815 650.533V666.76H500.605V677.053H478.815V694.207H503.387V704.778H465.833V639.962H503.387V650.533H478.815ZM512.032 672.323C512.032 665.956 513.454 660.269 516.297 655.262C519.203 650.193 523.128 646.267 528.074 643.485C533.081 640.642 538.675 639.22 544.857 639.22C552.09 639.22 558.426 641.074 563.866 644.784C569.306 648.493 573.108 653.624 575.272 660.176H560.343C558.859 657.085 556.757 654.767 554.037 653.222C551.379 651.676 548.288 650.904 544.765 650.904C540.994 650.904 537.625 651.8 534.657 653.593C531.752 655.324 529.465 657.796 527.796 661.011C526.188 664.225 525.385 667.996 525.385 672.323C525.385 676.589 526.188 680.36 527.796 683.636C529.465 686.851 531.752 689.354 534.657 691.147C537.625 692.878 540.994 693.743 544.765 693.743C548.288 693.743 551.379 692.971 554.037 691.425C556.757 689.818 558.859 687.469 560.343 684.378H575.272C573.108 690.993 569.306 696.154 563.866 699.863C558.488 703.511 552.152 705.334 544.857 705.334C538.675 705.334 533.081 703.943 528.074 701.162C523.128 698.318 519.203 694.393 516.297 689.385C513.454 684.378 512.032 678.691 512.032 672.323ZM640.049 640.054V704.778H627.067V677.238H599.342V704.778H586.36V640.054H599.342V666.667H627.067V640.054H640.049Z" fill="url(#paint1_linear_1_62)"/>
<path d="M530.11 217.029H432.94V511.009H530.11V217.029Z" fill="url(#paint2_linear_1_62)"/>
<path d="M279.07 367.309H385.05C395.41 336.139 405.77 304.979 416.13 273.809H279.07C271.04 274.259 258.59 275.939 244.81 282.039C240.1 284.129 221.78 292.699 206.3 312.589C191.59 331.489 187.13 350.739 185.58 360.399C185.49 410.599 185.4 460.799 185.31 511.009C188.18 510.869 193.36 510.479 199.65 509.149C232.29 502.229 264.45 476.219 275.35 440.619C277.13 434.809 279.44 425.149 279.33 412.459C279.24 397.409 279.15 382.359 279.06 367.299L279.07 367.309Z" fill="#262C67"/>
<path d="M488.71 212.959C475.22 212.839 461.74 212.799 448.25 212.719C428.02 212.599 407.79 212.479 387.56 212.359C364.52 212.219 341.48 212.089 318.44 211.949C317.85 207.579 317.45 201.299 318.55 193.869C320.81 178.529 333.08 160.569 333.08 160.569C337.26 154.459 346.97 140.259 361.74 129.529C389.4 109.429 420.68 111.749 431.99 112.459C476.76 115.299 550.12 114.749 646.93 113.739C647.19 116.589 647.37 120.679 646.86 125.559C644.48 148.089 629.79 163.719 620.44 173.399C608.46 185.809 587.8 207.209 554.45 213.349C547.56 214.619 549.47 213.519 488.7 212.959H488.71Z" fill="#262C67"/>
<path opacity="0.2" d="M487.84 213.029C476.25 212.919 464.65 212.889 453.06 212.819C435.67 212.719 418.28 212.609 400.89 212.509C381.08 212.389 361.28 212.269 341.47 212.159C340.97 208.399 340.62 203.009 341.56 196.609C343.5 183.429 354.05 167.979 354.05 167.979C357.64 162.729 365.99 150.519 378.69 141.299C401.62 124.639 439.02 126.629 439.08 126.629C439.32 126.629 497.39 123.029 646.94 113.729C646.88 121.769 645.8 134.639 639.83 148.239C633.51 162.609 625.09 170.199 611.97 181.939C599.9 192.739 583.01 207.849 561.89 211.679C558.12 212.359 550.56 213.349 541.95 213.729C536.82 213.959 535.19 213.459 487.85 213.029H487.84Z" fill="url(#paint3_linear_1_62)"/>
<path d="M310.31 211.949C308.23 211.699 304.78 211.579 300.97 212.939C292.75 215.869 289.21 223.489 287.84 226.209C285.29 231.249 285.07 235.449 284.8 244.319C284.46 255.399 284.31 265.339 284.25 273.899C280.25 274.339 274.75 275.149 268.35 276.799C247.84 282.099 234.27 291.829 231.03 294.219C216.68 304.819 208.92 316.429 204.63 322.969C192.93 340.819 188.09 358.359 185.97 370.659C185.65 317.389 185.32 264.129 185 210.859C185.07 205.639 185.63 198.239 187.9 189.709C188.59 187.129 191.98 174.879 201.58 160.959C223.68 128.929 257.66 118.569 262.13 117.279C270 114.999 281.47 112.639 295.72 112.989H384.6C377.72 115.779 370.56 119.459 363.45 124.329C324.75 150.819 313.65 194.729 310.31 211.949Z" fill="url(#paint4_linear_1_62)"/>
<path opacity="0.17" d="M185.3 372.169C186.79 365.099 189.63 353.689 195.09 340.439C208.17 308.699 227.02 288.839 232.06 283.349C250.74 262.969 283.35 217.769 344.32 112.989H384.61C380.22 114.759 374.6 117.359 368.42 121.119C364.41 123.559 356.14 128.949 347.32 137.789C345.72 139.389 338.47 146.749 331.4 157.749C330.47 159.199 327.77 163.469 324.77 169.319C324.37 170.099 321.76 175.219 319.23 181.519C314.45 193.409 311.71 205.089 310.32 211.939C307.69 211.679 301.58 211.479 295.9 215.229C289.47 219.469 287.45 226.219 286.35 229.859C285.43 232.919 284.96 236.199 284.81 242.799C284.71 247.399 284.6 251.999 284.5 256.599C284.42 262.359 284.34 268.119 284.26 273.879C240.41 306.779 233.44 312.949 233.44 312.949C220.23 324.639 202.34 343.279 185.32 372.149L185.3 372.169Z" fill="#0C9246"/>
<path opacity="0.18" d="M532.12 511.009H434.95C463.2 467.319 496.42 404.239 516.12 323.419C525.64 284.359 530.25 248.399 532.13 217.029V511.009H532.12Z" fill="#006838"/>
<defs>
<linearGradient id="paint0_linear_1_62" x1="185" y1="586" x2="644" y2="586" gradientUnits="userSpaceOnUse">
<stop stop-color="#252C69"/>
</linearGradient>
<linearGradient id="paint1_linear_1_62" x1="405.917" y1="672.278" x2="646.917" y2="672.278" gradientUnits="userSpaceOnUse">
<stop offset="1" stop-color="#03AA4B"/>
</linearGradient>
<linearGradient id="paint2_linear_1_62" x1="481.54" y1="299.689" x2="481.52" y2="396.859" gradientUnits="userSpaceOnUse">
<stop stop-color="#03AA4B"/>
<stop offset="0.92" stop-color="#72BF4B"/>
</linearGradient>
<linearGradient id="paint3_linear_1_62" x1="342.032" y1="163.955" x2="648.334" y2="163.741" gradientUnits="userSpaceOnUse">
<stop stop-color="#2E4FA2"/>
<stop offset="0.33" stop-color="#2D4D9F"/>
<stop offset="0.55" stop-color="#2B4796"/>
<stop offset="0.74" stop-color="#293C87"/>
<stop offset="0.91" stop-color="#252E72"/>
<stop offset="1" stop-color="#232463"/>
</linearGradient>
<linearGradient id="paint4_linear_1_62" x1="279.24" y1="247.839" x2="290.34" y2="74.5789" gradientUnits="userSpaceOnUse">
<stop stop-color="#0EAA4B"/>
<stop offset="0.85" stop-color="#8BC63F"/>
<stop offset="0.86" stop-color="#6D9636"/>
<stop offset="0.87" stop-color="#587530"/>
<stop offset="0.88" stop-color="#475A2B"/>
<stop offset="0.89" stop-color="#3A4426"/>
<stop offset="0.9" stop-color="#2F3323"/>
<stop offset="0.92" stop-color="#282721"/>
<stop offset="0.94" stop-color="#242020"/>
<stop offset="1" stop-color="#231F20"/>
</linearGradient>
</defs>
</svg>
